<?xml version="1.0" standalone="no"?>
<!DOCTYPE svg PUBLIC "-//W3C//DTD SVG 20010904//EN"
 "http://www.w3.org/TR/2001/REC-SVG-20010904/DTD/svg10.dtd">
<svg version="1.0" xmlns="http://www.w3.org/2000/svg"
 width="500.000000pt" height="500.000000pt" viewBox="0 0 500.000000 500.000000"
 preserveAspectRatio="xMidYMid meet">
<metadata>
Created by potrace 1.14, written by Peter Selinger 2001-2017
</metadata>
<g transform="translate(0.000000,500.000000) scale(0.100000,-0.100000)"
fill="#000000" stroke="none">
<path d="M0 2500 l0 -2500 2500 0 2500 0 0 2500 0 2500 -2500 0 -2500 0 0
-2500z m2782 1429 c144 -51 271 -99 281 -107 16 -14 17 -44 17 -352 0 -308 -1
-338 -17 -352 -20 -17 -535 -198 -563 -198 -28 0 -543 181 -562 198 -17 14
-18 44 -18 352 0 308 1 338 18 352 9 9 76 36 147 61 72 25 189 65 260 90 72
25 140 46 152 46 11 1 140 -40 285 -90z m-812 -1065 l0 -55 -52 3 -53 3 -3 39
c-5 59 1 66 58 66 l50 0 0 -56z m1160 1 l0 -55 -50 0 -50 0 0 55 0 55 50 0 50
0 0 -55z m-580 -160 l0 -55 -50 0 -50 0 0 55 0 55 50 0 50 0 0 -55z m-370 -55
l0 -50 -50 0 -50 0 0 50 0 50 50 0 50 0 0 -50z m740 0 l0 -50 -50 0 -50 0 0
50 0 50 50 0 50 0 0 -50z m-530 -155 l0 -55 -50 0 -50 0 0 55 0 55 50 0 50 0
0 -55z m320 0 l0 -55 -50 0 -50 0 0 55 0 55 50 0 50 0 0 -55z m-160 -210 l0
-55 -50 0 -50 0 0 55 0 55 50 0 50 0 0 -55z m883 -181 c45 -23 76 -53 98 -97
19 -36 19 -59 17 -475 l-3 -439 -27 -36 c-16 -19 -43 -46 -60 -59 l-33 -23
-905 -3 c-597 -2 -917 1 -940 7 -40 12 -93 59 -118 105 -15 28 -17 77 -17 461
0 472 -2 458 62 516 66 62 3 58 991 59 812 0 906 -2 935 -16z"/>
<path d="M2313 3852 c-89 -31 -164 -60 -167 -63 -3 -3 75 -34 174 -68 l180
-63 180 63 c99 34 177 66 173 69 -14 12 -338 120 -358 119 -11 0 -93 -26 -182
-57z"/>
<path d="M2020 3476 c0 -129 3 -237 8 -239 4 -3 99 27 212 67 l205 71 0 95 0
95 -205 72 c-113 40 -208 73 -212 73 -5 0 -8 -105 -8 -234z"/>
<path d="M2905 3690 c-27 -10 -115 -41 -195 -69 -79 -28 -148 -55 -152 -59 -5
-5 -8 -49 -6 -98 l3 -89 205 -72 c113 -40 208 -73 213 -73 4 0 7 108 7 240 0
186 -3 240 -12 239 -7 0 -35 -9 -63 -19z"/>
<path d="M2330 3225 c-52 -19 -117 -42 -143 -51 -27 -9 -46 -18 -44 -20 8 -8
279 -104 293 -104 11 0 14 22 14 105 0 78 -3 105 -12 104 -7 0 -56 -16 -108
-34z"/>
<path d="M2550 3155 c0 -58 4 -105 9 -105 11 0 270 89 289 100 8 4 -46 27
-135 58 -81 29 -151 52 -155 52 -5 0 -8 -47 -8 -105z"/>
<path d="M1584 1986 l-34 -34 0 -401 c0 -289 3 -407 12 -426 20 -45 55 -55
183 -55 l115 0 0 475 0 475 -121 0 -121 0 -34 -34z m176 -232 l0 -55 -52 3
-53 3 -3 53 -3 52 55 0 56 0 0 -56z m0 -209 l0 -55 -55 0 -55 0 0 48 c0 27 3
52 7 55 3 4 28 7 55 7 l48 0 0 -55z m-2 -212 l3 -53 -55 0 -56 0 0 48 c0 27 3
52 7 56 4 4 28 6 53 4 l45 -3 3 -52z"/>
<path d="M1970 1545 l0 -475 530 0 530 0 0 475 0 475 -530 0 -530 0 0 -475z
m680 259 c85 -34 146 -65 155 -77 19 -26 22 -321 4 -360 -8 -19 -43 -37 -153
-81 -78 -31 -148 -56 -156 -56 -28 0 -295 111 -307 128 -9 11 -13 66 -13 189
0 156 2 175 18 189 22 18 269 122 294 123 10 1 81 -24 158 -55z"/>
<path d="M2435 1726 l-50 -23 48 -22 c27 -11 57 -21 67 -21 10 0 40 10 67 21
l48 22 -50 23 c-27 12 -57 23 -65 23 -8 0 -37 -11 -65 -23z"/>
<path d="M2292 1520 l3 -102 58 -23 c108 -44 98 -51 95 66 l-3 103 -60 23
c-106 41 -96 48 -93 -67z"/>
<path d="M2625 1591 l-70 -27 -3 -102 c-1 -56 -1 -102 0 -102 2 0 37 13 78 29
l75 29 3 101 c1 56 -1 101 -5 100 -4 0 -39 -13 -78 -28z"/>
<path d="M3130 1546 l0 -476 126 0 126 0 34 34 34 34 0 406 0 406 -29 32 -29
33 -131 3 -131 4 0 -476z m191 94 c16 -9 19 -22 19 -93 0 -87 -8 -107 -44
-107 -41 0 -56 28 -56 103 0 94 27 126 81 97z"/>
</g>
</svg>
